<svg xmlns="http://www.w3.org/2000/svg" xmlns:xlink="http://www.w3.org/1999/xlink" id="Layer_1" enable-background="new 0 0 24 24" version="1.1" viewBox="0 0 24 24" xml:space="preserve"><g><path fill="#FFC720" d="M21,6l-6-6H5C3.8954306,0,3,0.8954305,3,2v20c0,1.1045704,0.8954306,2,2,2h14c1.1045704,0,2-0.8954296,2-2 V6z"/><linearGradient id="SVGID_1_" x1="16.809" x2="22.206" y1="4.222" y2="9.619" gradientUnits="userSpaceOnUse"><stop offset="0" style="stop-color:#000;stop-opacity:.1"/><stop offset="1" style="stop-color:#000;stop-opacity:0"/></linearGradient><path fill="url(#SVGID_1_)" d="M17,6c-0.5444336,0-1.0367432-0.2190552-1.3973999-0.5719604L21,10.8254395V6H17z"/><path d="M19,23.75H5c-1.1045532,0-2-0.8954468-2-2V22c0,1.1045532,0.8954468,2,2,2h14c1.1045532,0,2-0.8954468,2-2 v-0.25C21,22.8545532,20.1045532,23.75,19,23.75z" opacity=".1"/><path fill="#FFE083" d="M15,0v4c0,1.1045694,0.8954306,2,2,2h4L15,0z"/><path d="M17,5.75c-1.1045532,0-2-0.8954468-2-2V4c0,1.1045532,0.8954468,2,2,2h4l-0.25-0.25H17z" opacity=".1"/><path fill="#FFF" d="M15,0H5C3.8954468,0,3,0.8953857,3,2v0.25c0-1.1046143,0.8954468-2,2-2h10" opacity=".2"/><path fill="#FFF" d="M15.5,9h-7C7.6728516,9,7,9.6728516,7,10.5v6C7,17.3271484,7.6728516,18,8.5,18h7 c0.8271484,0,1.5-0.6728516,1.5-1.5v-6C17,9.6728516,16.3271484,9,15.5,9z M8,15.5V11h8v4.5H8z"/><linearGradient id="SVGID_2_" x1=".21" x2="22.996" y1="7.539" y2="18.164" gradientUnits="userSpaceOnUse"><stop offset="0" style="stop-color:#fff;stop-opacity:.2"/><stop offset="1" style="stop-color:#fff;stop-opacity:0"/></linearGradient><path fill="url(#SVGID_2_)" d="M21,6l-6-6H5C3.8954306,0,3,0.8954305,3,2v20c0,1.1045704,0.8954306,2,2,2h14 c1.1045704,0,2-0.8954296,2-2V6z"/></g></svg>